<svg width="600" height="400" viewBox="0 0 600 400" fill="none" xmlns="http://www.w3.org/2000/svg">
<rect width="600" height="400" fill="#2C3E50"/>
<g clip-path="url(#clip0_21_8)">
<path d="M299.5 300C354.452 300 399 255.452 399 200.5C399 145.548 354.452 101 299.5 101C244.548 101 200 145.548 200 200.5C200 255.452 244.548 300 299.5 300Z" fill="#0095D5"/>
<path d="M351.582 192.029V214.224L304.063 241.672V219.479L351.582 192.029ZM294.97 219.479V241.674L247.418 214.224V192.029L268.906 204.426C268.929 204.444 268.956 204.46 268.983 204.472L294.97 219.479ZM318.739 200.5L299.517 211.606L280.278 200.5L299.517 189.394L318.739 200.5ZM347.054 184.158L327.815 195.265L304.063 181.537V159.326L347.054 184.158ZM294.972 159.32V181.537L271.185 195.253L251.946 184.164L294.972 159.32Z" fill="white"/>
</g>
<defs>
<clipPath id="clip0_21_8">
<rect width="199" height="199" fill="white" transform="translate(200 101)"/>
</clipPath>
</defs>
</svg>
